<svg width="18" height="18" viewBox="0 0 18 18" fill="none" xmlns="http://www.w3.org/2000/svg">
<path fill-rule="evenodd" clip-rule="evenodd" d="M12.9102 11.4611L17.2514 15.8147L15.8051 17.2662L11.468 12.9167C10.022 14.0089 8.21714 14.5112 6.41671 14.3227C4.61628 14.1342 2.95387 13.2687 1.76403 11.9006C0.574194 10.5324 -0.0547589 8.76313 0.00374375 6.94869C0.0622464 5.13425 0.803863 3.40937 2.07935 2.12117C3.35484 0.832971 5.06952 0.077066 6.87833 0.00557507C8.68715 -0.0659159 10.4558 0.552314 11.8285 1.73585C13.2011 2.91939 14.0758 4.58038 14.2765 6.38458C14.4772 8.18877 13.989 10.0022 12.9102 11.4601V11.4611ZM12.274 7.18135C12.274 5.82103 11.7351 4.51642 10.776 3.55452C9.81684 2.59263 8.51594 2.05224 7.15949 2.05224C5.80304 2.05224 4.50215 2.59263 3.54299 3.55452C2.58384 4.51642 2.04499 5.82103 2.04499 7.18135C2.04499 8.54168 2.58384 9.84628 3.54299 10.8082C4.50215 11.7701 5.80304 12.3105 7.15949 12.3105C8.51594 12.3105 9.81684 11.7701 10.776 10.8082C11.7351 9.84628 12.274 8.54168 12.274 7.18135Z" fill="#9D9D9D"/>
</svg>
