<svg width="40" height="40" viewBox="0 0 40 40" fill="none" xmlns="http://www.w3.org/2000/svg">
<circle cx="20" cy="20" r="20" fill="white"/>
<path d="M20.4168 16.0985C18.4915 16.0985 16.932 17.658 16.932 19.5833C16.932 21.5087 18.4915 23.0682 20.4168 23.0682C22.3422 23.0682 23.9017 21.5087 23.9017 19.5833C23.9017 17.658 22.3422 16.0985 20.4168 16.0985ZM28.2055 18.7121C27.8047 15.0792 24.921 12.1955 21.288 11.7947V10H19.5456V11.7947C15.9127 12.1955 13.029 15.0792 12.6282 18.7121H10.8335V20.4545H12.6282C13.029 24.0875 15.9127 26.9712 19.5456 27.372V29.1667H21.288V27.372C24.921 26.9712 27.8047 24.0875 28.2055 20.4545H30.0002V18.7121H28.2055ZM20.4168 25.6818C17.0452 25.6818 14.3183 22.9549 14.3183 19.5833C14.3183 16.2117 17.0452 13.4848 20.4168 13.4848C23.7884 13.4848 26.5153 16.2117 26.5153 19.5833C26.5153 22.9549 23.7884 25.6818 20.4168 25.6818Z" fill="#80A2FF"/>
</svg>
