<svg width="40" height="40" viewBox="0 0 40 40" fill="none" xmlns="http://www.w3.org/2000/svg">
<path d="M20 3.33325C23.9782 3.33325 27.7936 4.9136 30.6066 7.72665C33.4196 10.5397 35 14.355 35 18.3333C35 23.4566 32.2067 27.6499 29.2633 30.6583C27.7928 32.145 26.1882 33.493 24.47 34.6849L23.76 35.1683L23.4267 35.3899L22.7983 35.7899L22.2383 36.1316L21.545 36.5349C21.0744 36.8035 20.5419 36.9448 20 36.9448C19.4581 36.9448 18.9256 36.8035 18.455 36.5349L17.7617 36.1316L16.895 35.5983L16.575 35.3899L15.8917 34.9349C14.0381 33.6808 12.3115 32.2484 10.7367 30.6583C7.79333 27.6483 5 23.4566 5 18.3333C5 14.355 6.58035 10.5397 9.3934 7.72665C12.2064 4.9136 16.0218 3.33325 20 3.33325ZM20 13.3333C19.3434 13.3333 18.6932 13.4626 18.0866 13.7139C17.48 13.9651 16.9288 14.3334 16.4645 14.7977C16.0002 15.262 15.6319 15.8132 15.3806 16.4198C15.1293 17.0265 15 17.6766 15 18.3333C15 18.9899 15.1293 19.64 15.3806 20.2467C15.6319 20.8533 16.0002 21.4045 16.4645 21.8688C16.9288 22.3331 17.48 22.7014 18.0866 22.9527C18.6932 23.2039 19.3434 23.3333 20 23.3333C21.3261 23.3333 22.5979 22.8065 23.5355 21.8688C24.4732 20.9311 25 19.6593 25 18.3333C25 17.0072 24.4732 15.7354 23.5355 14.7977C22.5979 13.86 21.3261 13.3333 20 13.3333Z" fill="#80A2FF"/>
</svg>
