<svg width="50" height="50" viewBox="0 0 50 50" fill="none" xmlns="http://www.w3.org/2000/svg">
<circle cx="25" cy="25" r="25" fill="#DEB483"/>
<path fill-rule="evenodd" clip-rule="evenodd" d="M19.6766 20.8125H21.3172L21.8797 19.2703L22.2672 18.2016C22.322 18.0509 22.4219 17.9207 22.5533 17.8287C22.6847 17.7368 22.8412 17.6875 23.0016 17.6875H27.9984C28.159 17.6876 28.3156 17.7371 28.447 17.8294C28.5784 17.9216 28.6782 18.0521 28.7328 18.2031L29.1219 19.2703L29.6828 20.8125H31.75C32.3716 20.8125 32.9677 21.0594 33.4073 21.499C33.8468 21.9385 34.0938 22.5346 34.0938 23.1562V30.1875C34.0938 30.8091 33.8468 31.4052 33.4073 31.8448C32.9677 32.2843 32.3716 32.5312 31.75 32.5312H19.25C18.6284 32.5312 18.0323 32.2843 17.5927 31.8448C17.1532 31.4052 16.9062 30.8091 16.9062 30.1875V23.1562C16.9062 22.5346 17.1532 21.9385 17.5927 21.499C18.0323 21.0594 18.6284 20.8125 19.25 20.8125H19.6766ZM23 15.3438C22.3583 15.3437 21.7322 15.5411 21.2066 15.9093C20.6811 16.2775 20.2816 16.7985 20.0625 17.4016L19.675 18.4688H19.25C18.0068 18.4688 16.8145 18.9626 15.9354 19.8417C15.0564 20.7208 14.5625 21.913 14.5625 23.1562V30.1875C14.5625 31.4307 15.0564 32.623 15.9354 33.5021C16.8145 34.3811 18.0068 34.875 19.25 34.875H31.75C32.9932 34.875 34.1855 34.3811 35.0646 33.5021C35.9436 32.623 36.4375 31.4307 36.4375 30.1875V23.1562C36.4375 21.913 35.9436 20.7208 35.0646 19.8417C34.1855 18.9626 32.9932 18.4688 31.75 18.4688H31.3234L30.9359 17.4016C30.7168 16.7985 30.3173 16.2775 29.7918 15.9093C29.2662 15.5411 28.6401 15.3437 27.9984 15.3438H23ZM27.8422 26.2812C27.8422 26.9029 27.5953 27.499 27.1557 27.9385C26.7162 28.3781 26.12 28.625 25.4984 28.625C24.8768 28.625 24.2807 28.3781 23.8412 27.9385C23.4016 27.499 23.1547 26.9029 23.1547 26.2812C23.1547 25.6596 23.4016 25.0635 23.8412 24.624C24.2807 24.1844 24.8768 23.9375 25.4984 23.9375C26.12 23.9375 26.7162 24.1844 27.1557 24.624C27.5953 25.0635 27.8422 25.6596 27.8422 26.2812ZM30.1859 26.2812C30.1859 26.8968 30.0647 27.5064 29.8291 28.0751C29.5936 28.6438 29.2483 29.1605 28.813 29.5958C28.3777 30.0311 27.861 30.3764 27.2923 30.6119C26.7236 30.8475 26.114 30.9688 25.4984 30.9688C24.8829 30.9688 24.2733 30.8475 23.7046 30.6119C23.1359 30.3764 22.6191 30.0311 22.1839 29.5958C21.7486 29.1605 21.4033 28.6438 21.1678 28.0751C20.9322 27.5064 20.8109 26.8968 20.8109 26.2812C20.8109 25.038 21.3048 23.8458 22.1839 22.9667C23.063 22.0876 24.2552 21.5938 25.4984 21.5938C26.7416 21.5938 27.9339 22.0876 28.813 22.9667C29.6921 23.8458 30.1859 25.038 30.1859 26.2812Z" fill="white"/>
</svg>
