<svg width="11" height="11" viewBox="0 0 11 11" fill="none" xmlns="http://www.w3.org/2000/svg">
<path d="M8.93613 3.66162L5.50001 7.01111L2.06388 3.66162C2.00249 3.60164 1.92008 3.56807 1.83426 3.56807C1.74844 3.56807 1.66602 3.60164 1.60463 3.66162C1.57491 3.69074 1.55129 3.7255 1.53517 3.76387C1.51905 3.80224 1.51074 3.84344 1.51074 3.88505C1.51074 3.92667 1.51905 3.96787 1.53517 4.00623C1.55129 4.0446 1.57491 4.07936 1.60463 4.10849L5.26007 7.67249C5.32426 7.73506 5.41036 7.77008 5.50001 7.77008C5.58965 7.77008 5.67575 7.73506 5.73994 7.67249L9.39538 4.10918C9.42532 4.08003 9.44911 4.04518 9.46536 4.00669C9.4816 3.96819 9.48997 3.92683 9.48997 3.88505C9.48997 3.84327 9.4816 3.80191 9.46536 3.76342C9.44911 3.72492 9.42532 3.69007 9.39538 3.66093C9.33399 3.60096 9.25158 3.56738 9.16576 3.56738C9.07994 3.56738 8.99752 3.60096 8.93613 3.66093V3.66162Z" fill="#555555"/>
</svg>
