<svg width="19" height="23" viewBox="0 0 19 23" fill="none" xmlns="http://www.w3.org/2000/svg">
<path d="M9.5 0C12.0196 0 14.4359 1.08142 16.2175 3.00635C17.9991 4.93128 19 7.54206 19 10.2643C19 13.7702 17.2309 16.6396 15.3668 18.6982C14.4354 19.7156 13.4192 20.6379 12.331 21.4536L11.8813 21.7843L11.6702 21.936L11.2723 22.2097L10.9176 22.4435L10.4785 22.7195C10.1804 22.9033 9.84319 23 9.5 23C9.15681 23 8.81955 22.9033 8.5215 22.7195L8.08239 22.4435L7.5335 22.0786L7.33083 21.936L6.89806 21.6246C5.7241 20.7665 4.63062 19.7863 3.63322 18.6982C1.76911 16.6385 0 13.7702 0 10.2643C0 7.54206 1.00089 4.93128 2.78249 3.00635C4.56408 1.08142 6.98044 0 9.5 0ZM9.5 6.84288C9.08415 6.84288 8.67237 6.93138 8.28817 7.10332C7.90397 7.27527 7.55488 7.52729 7.26083 7.845C6.96678 8.16271 6.73352 8.53989 6.57438 8.95499C6.41524 9.3701 6.33333 9.81501 6.33333 10.2643C6.33333 10.7136 6.41524 11.1585 6.57438 11.5737C6.73352 11.9888 6.96678 12.3659 7.26083 12.6836C7.55488 13.0014 7.90397 13.2534 8.28817 13.4253C8.67237 13.5973 9.08415 13.6858 9.5 13.6858C10.3399 13.6858 11.1453 13.3253 11.7392 12.6836C12.333 12.042 12.6667 11.1717 12.6667 10.2643C12.6667 9.3569 12.333 8.48664 11.7392 7.845C11.1453 7.20335 10.3399 6.84288 9.5 6.84288Z" fill="#C08439"/>
<path d="M14.5 7.25H12.375V6.99C12.375 5.339 11.0875 4 9.5 4C7.9125 4 6.625 5.339 6.625 6.99V7.25H4.5C4.22344 7.25 4 7.48237 4 7.77V16.48C4 16.7676 4.22344 17 4.5 17H14.5C14.7766 17 15 16.7676 15 16.48V7.77C15 7.48237 14.7766 7.25 14.5 7.25ZM11.25 7.25H7.75V6.99C7.75 5.98412 8.53281 5.17 9.5 5.17C10.4672 5.17 11.25 5.98412 11.25 6.99V7.25Z" fill="white"/>
</svg>
