<svg width="20" height="20" viewBox="0 0 20 20" fill="none" xmlns="http://www.w3.org/2000/svg">
<path fill-rule="evenodd" clip-rule="evenodd" d="M6.25016 5.83317V5.4165C6.25016 4.42194 6.64525 3.46811 7.34851 2.76485C8.05177 2.06159 9.0056 1.6665 10.0002 1.6665C10.9947 1.6665 11.9486 2.06159 12.6518 2.76485C13.3551 3.46811 13.7502 4.42194 13.7502 5.4165V5.83317H15.8335C16.2935 5.83317 16.6668 6.20734 16.6668 6.67234V16.6732C16.6668 17.5898 15.921 18.3332 15.0052 18.3332H4.99516C4.55475 18.3332 4.13235 18.1583 3.82078 17.8471C3.5092 17.5358 3.33394 17.1136 3.3335 16.6732V6.67317C3.3335 6.20817 3.70433 5.83317 4.16683 5.83317H6.25016ZM7.50016 5.83317H12.5002V5.4165C12.5002 4.75346 12.2368 4.11758 11.7679 3.64874C11.2991 3.1799 10.6632 2.9165 10.0002 2.9165C9.33712 2.9165 8.70124 3.1799 8.2324 3.64874C7.76355 4.11758 7.50016 4.75346 7.50016 5.4165V5.83317ZM6.25016 5.83317V9.1665H7.50016V5.83317H6.25016ZM12.5002 5.83317V9.1665H13.7502V5.83317H12.5002Z" fill="#C08439"/>
</svg>
