<svg width="15" height="15" viewBox="0 0 15 15" fill="none" xmlns="http://www.w3.org/2000/svg">
<path d="M12.6062 5.9375C12.3375 5.61875 11.95 5.4375 11.5312 5.4375H9.0125V3.71875C9.0125 2.76875 8.24375 2 7.24375 2C6.80625 2 6.4125 2.2625 6.2375 2.66875L4.65 6.375H3.48125C2.6625 6.375 2 7.0375 2 7.85625V11.4625C2 12.275 2.66875 12.9375 3.48125 12.9375H10.7063C11.3875 12.9375 11.9687 12.45 12.0875 11.775L12.9125 7.0875C12.9812 6.675 12.8687 6.25625 12.6 5.9375H12.6062ZM3.48125 12C3.18125 12 2.9375 11.7562 2.9375 11.4625V7.85625C2.9375 7.55625 3.18125 7.3125 3.48125 7.3125H4.4875V12H3.48125ZM11.1688 11.6125C11.1313 11.8375 10.9375 12 10.7063 12H5.43125V6.9375L7.1 3.03125C7.125 2.975 7.18125 2.93125 7.3 2.93125C7.73125 2.93125 8.075 3.28125 8.075 3.7125V6.36875H11.5312C11.675 6.36875 11.8 6.425 11.8875 6.53125C11.975 6.6375 12.0125 6.775 11.9875 6.91875L11.1625 11.6063L11.1688 11.6125Z" fill="#555555"/>
</svg>
