<svg width="19" height="23" viewBox="0 0 19 23" fill="none" xmlns="http://www.w3.org/2000/svg">
<path d="M9.5 0C12.0196 0 14.4359 1.08142 16.2175 3.00635C17.9991 4.93128 19 7.54206 19 10.2643C19 13.7702 17.2309 16.6396 15.3668 18.6982C14.4354 19.7156 13.4192 20.6379 12.331 21.4536L11.8813 21.7843L11.6702 21.936L11.2723 22.2097L10.9176 22.4435L10.4785 22.7195C10.1804 22.9033 9.84319 23 9.5 23C9.15681 23 8.81955 22.9033 8.5215 22.7195L8.08239 22.4435L7.5335 22.0786L7.33083 21.936L6.89806 21.6246C5.7241 20.7665 4.63062 19.7863 3.63322 18.6982C1.76911 16.6385 0 13.7702 0 10.2643C0 7.54206 1.00089 4.93128 2.78249 3.00635C4.56408 1.08142 6.98044 0 9.5 0ZM9.5 6.84288C9.08415 6.84288 8.67237 6.93138 8.28817 7.10332C7.90397 7.27527 7.55488 7.52729 7.26083 7.845C6.96678 8.16271 6.73352 8.53989 6.57438 8.95499C6.41524 9.3701 6.33333 9.81501 6.33333 10.2643C6.33333 10.7136 6.41524 11.1585 6.57438 11.5737C6.73352 11.9888 6.96678 12.3659 7.26083 12.6836C7.55488 13.0014 7.90397 13.2534 8.28817 13.4253C8.67237 13.5973 9.08415 13.6858 9.5 13.6858C10.3399 13.6858 11.1453 13.3253 11.7392 12.6836C12.333 12.042 12.6667 11.1717 12.6667 10.2643C12.6667 9.3569 12.333 8.48664 11.7392 7.845C11.1453 7.20335 10.3399 6.84288 9.5 6.84288Z" fill="#C08439"/>
<path d="M16 9.1675V11.839C16 11.9909 15.9701 12.1414 15.9119 12.2818C15.8538 12.4221 15.7686 12.5497 15.6611 12.6571C15.5537 12.7646 15.4261 12.8498 15.2858 12.9079C15.1454 12.9661 14.9949 12.996 14.843 12.996H11.9895V15.8495C11.9907 16.0007 11.9614 16.1506 11.9033 16.2902C11.8452 16.4298 11.7596 16.5562 11.6515 16.662C11.4334 16.8777 11.1393 16.9991 10.8325 17H8.161C7.85425 16.9991 7.56014 16.8777 7.342 16.662C7.12789 16.4455 7.00664 16.154 7.004 15.8495V12.996H4.157C3.85014 12.996 3.55586 12.8741 3.33888 12.6571C3.1219 12.4401 3 12.1459 3 11.839V9.1675C3 8.86064 3.1219 8.56636 3.33888 8.34938C3.55586 8.1324 3.85014 8.0105 4.157 8.0105H7.004V5.157C7.00573 4.92808 7.07458 4.7047 7.20202 4.51452C7.32945 4.32435 7.50988 4.17574 7.72095 4.0871C7.86064 4.02996 8.01007 4.00038 8.161 4H10.8C11.1068 4.00095 11.4009 4.12233 11.619 4.338C11.7267 4.4454 11.812 4.57308 11.87 4.71366C11.928 4.85424 11.9576 5.00492 11.957 5.157V8.0105H14.8105C15.1173 8.01245 15.4111 8.134 15.6295 8.3485C15.7428 8.45339 15.8339 8.57989 15.8975 8.72055C15.9612 8.8612 15.996 9.01317 16 9.1675Z" fill="white"/>
</svg>
