<svg width="16" height="16" viewBox="0 0 16 16" fill="none" xmlns="http://www.w3.org/2000/svg">
<g clip-path="url(#clip0_2028_3811)">
<path d="M15 6.11924V9.20174C15 9.37705 14.9655 9.55065 14.8984 9.71262C14.8313 9.87459 14.733 10.0218 14.609 10.1457C14.485 10.2697 14.3379 10.368 14.1759 10.4351C14.0139 10.5022 13.8403 10.5367 13.665 10.5367H10.3725V13.8292C10.3739 14.0037 10.34 14.1766 10.273 14.3377C10.206 14.4988 10.1072 14.6447 9.9825 14.7667C9.73081 15.0156 9.39145 15.1556 9.0375 15.1567H5.955C5.60105 15.1556 5.26169 15.0156 5.01 14.7667C4.76295 14.5169 4.62305 14.1806 4.62 13.8292V10.5367H1.335C0.980936 10.5367 0.641374 10.3961 0.391012 10.1457C0.140651 9.89536 0 9.5558 0 9.20174V6.11924C0 5.76517 0.140651 5.42561 0.391012 5.17525C0.641374 4.92489 0.980936 4.78424 1.335 4.78424H4.62V1.49174C4.622 1.2276 4.70144 0.969852 4.84848 0.75042C4.99552 0.530988 5.20371 0.359513 5.44725 0.257238C5.60843 0.191302 5.78085 0.157175 5.955 0.156738H9C9.35395 0.15783 9.69331 0.297883 9.945 0.546738C10.0692 0.670661 10.1677 0.817985 10.2346 0.98019C10.3016 1.1424 10.3357 1.31626 10.335 1.49174V4.78424H13.6275C13.9815 4.78649 14.3205 4.92674 14.5725 5.17424C14.7032 5.29527 14.8084 5.44123 14.8818 5.60352C14.9552 5.76582 14.9954 5.94117 15 6.11924Z" fill="#C08439"/>
</g>
<defs>
<clipPath id="clip0_2028_3811">
<rect width="15.3419" height="15.3419" fill="white" transform="translate(0 0.156738)"/>
</clipPath>
</defs>
</svg>
